<?xml version="1.0" encoding="UTF-8"?>
<svg id="Layer_1" data-name="Layer 1" xmlns="http://www.w3.org/2000/svg" viewBox="0 0 32 40">
  <defs>
    <style>
      .cls-1 {
        fill: #003c2e;
      }
    </style>
  </defs>
  <path class="cls-1" d="m16,19.5c1,0,1.8-.3,2.5-1s1-1.5,1-2.5-.3-1.8-1-2.5-1.5-1-2.5-1-1.8.3-2.5,1-1,1.5-1,2.5.3,1.8,1,2.5,1.5,1,2.5,1Zm0,16.5c4.4-4,7.7-7.7,9.8-11s3.2-6.2,3.2-8.7c0-3.9-1.3-7.1-3.8-9.6-2.5-2.4-5.6-3.7-9.2-3.7s-6.7,1.3-9.2,3.8c-2.5,2.5-3.8,5.7-3.8,9.6,0,2.5,1.1,5.4,3.2,8.7,2.1,3.3,5.5,6.9,9.8,10.9Zm0,4c-5.4-4.6-9.4-8.8-12-12.7S0,19.8,0,16.4C0,11.4,1.6,7.4,4.8,4.5S11.8,0,16,0s8,1.5,11.2,4.5,4.8,6.9,4.8,11.9c0,3.3-1.3,7-4,10.9-2.6,3.9-6.6,8.1-12,12.7Z"/>
</svg>