<?xml version="1.0" encoding="UTF-8"?>
<svg id="Layer_1" data-name="Layer 1" xmlns="http://www.w3.org/2000/svg" viewBox="0 0 40.1 40">
  <defs>
    <style>
      .cls-1 {
        fill: #003c2e;
      }
    </style>
  </defs>
  <path class="cls-1" d="m15.1,28.5l13.4-8.5-13.4-8.5v17Zm4.9,11.5c-2.7,0-5.3-.5-7.8-1.6s-4.6-2.5-6.4-4.3-3.2-3.9-4.3-6.4-1.5-5-1.5-7.7.5-5.4,1.6-7.8,2.5-4.5,4.3-6.3,3.9-3.2,6.4-4.3,5-1.6,7.7-1.6,5.4.5,7.8,1.6c2.4,1.1,4.6,2.5,6.4,4.3s3.2,3.9,4.3,6.3c1.1,2.4,1.6,5,1.6,7.8s-.5,5.3-1.6,7.8c-1,2.4-2.5,4.6-4.3,6.4s-3.9,3.2-6.4,4.3-5,1.5-7.8,1.5Zm0-3c4.7,0,8.8-1.7,12-5,3.3-3.3,5-7.3,5-12s-1.6-8.8-5-12.1c-3.3-3.3-7.3-5-12-5s-8.7,1.7-12,5-5,7.4-5,12.1,1.7,8.7,5,12,7.3,5,12,5Z"/>
</svg>