<?xml version="1.0" encoding="utf-8"?>
<!-- Generator: Adobe Illustrator 27.5.0, SVG Export Plug-In . SVG Version: 6.00 Build 0)  -->
<svg version="1.1" id="Layer_1" xmlns="http://www.w3.org/2000/svg" xmlns:xlink="http://www.w3.org/1999/xlink" x="0px" y="0px"
	 viewBox="0 0 48 48" style="enable-background:new 0 0 48 48;" xml:space="preserve">
<style type="text/css">
	.st0{fill:#FFFFFF;}
</style>
<path class="st0" d="M7,44c-0.8,0-1.5-0.3-2.1-0.9C4.3,42.5,4,41.8,4,41V7c0-0.8,0.3-1.5,0.9-2.1S6.2,4,7,4h19l-3,3H7v34h24v-7h3v7
	c0,0.8-0.3,1.5-0.9,2.1C32.5,43.7,31.8,44,31,44H7z M12,35.5v-3h14v3H12z M12,29.5v-3h10v3H12z M31,30l-8-8h-7V12h7l8-8V30z
	 M34,25.4V8.1c1.9,0.7,3.3,1.9,4.4,3.7S40,15.3,40,17c0,1.7-0.6,3.4-1.8,5C37.1,23.7,35.7,24.8,34,25.4z M34,32.5v-3.1
	c2.3-0.8,4.4-2.3,6.2-4.5c1.8-2.2,2.8-4.8,2.8-7.9s-0.9-5.7-2.8-7.9c-1.8-2.2-3.9-3.7-6.2-4.5V1.5c3.4,0.9,6.2,2.8,8.5,5.6
	C44.9,10,46,13.3,46,17s-1.1,7-3.5,9.9C40.2,29.7,37.4,31.6,34,32.5z"/>
</svg>
