<?xml version="1.0" encoding="UTF-8"?>
<svg id="Layer_1" data-name="Layer 1" xmlns="http://www.w3.org/2000/svg" viewBox="0 0 36 35">
  <defs>
    <style>
      .cls-1 {
        fill: #fff;
      }
    </style>
  </defs>
  <path class="cls-1" d="m22,35v-3.1c3.23-.93,5.88-2.73,7.93-5.38s3.08-5.66,3.08-9.03-1.02-6.38-3.05-9.05-4.68-4.45-7.95-5.35V0c4.13.93,7.5,3.03,10.1,6.28s3.9,6.99,3.9,11.23-1.3,7.98-3.9,11.23-5.97,5.34-10.1,6.28ZM0,23.55v-12h8L18,1.55v32l-10-10H0Zm21,2.4V9.1c1.83.57,3.29,1.63,4.38,3.2s1.63,3.32,1.63,5.25-.55,3.63-1.65,5.2-2.55,2.63-4.35,3.2Zm-6-16.8l-5.65,5.4H3v6h6.35l5.65,5.45V9.15Z"/>
</svg>